<?xml version="1.0" encoding="UTF-8"?>
<svg width="64px" height="64px" viewBox="0 0 64 64" version="1.1" xmlns="http://www.w3.org/2000/svg" xmlns:xlink="http://www.w3.org/1999/xlink">
    <!-- Generator: Sketch 53.2 (72643) - https://sketchapp.com -->
    <title>Artboard</title>
    <desc>Created with Sketch.</desc>
    <g id="Artboard" stroke="none" stroke-width="1" fill="none" fill-rule="evenodd">
        <circle id="Oval" fill="#0E2B5C" cx="32" cy="32" r="32"></circle>
        <g id="1" transform="translate(14.000000, 16.000000)" fill-rule="nonzero">
            <path d="M22.5,11.53125 L13.5,11.53125 L13.5,29.925 C13.5,30.3288582 13.8273918,30.65625 14.23125,30.65625 L34.14375,30.65625 C34.5476082,30.65625 34.875,30.3288582 34.875,29.925 L34.875,13.78125 L22.5,13.78125 L22.5,11.53125 Z" id="Path" fill="#82B541"></path>
            <path d="M22.5,9.28125 L22.5,2.53125 L10.125,2.53125 L10.125,0.28125 L1.125,0.28125 L1.125,18.675 C1.125,19.0788582 1.45239178,19.40625 1.85625,19.40625 L11.25,19.40625 L11.25,9.28125 L22.5,9.28125 Z M9.7875,27.61875 L6.975,24.80625 C6.52711466,24.470336 5.90038332,24.5148764 5.50450487,24.9107549 C5.10862642,25.3066333 5.064086,25.9333647 5.4,26.38125 L6.3,27.28125 L3.375,27.28125 C2.75367966,27.28125 2.25,26.7775703 2.25,26.15625 L2.25,25.03125 C2.25,24.4099297 1.74632034,23.90625 1.125,23.90625 C0.503679656,23.90625 7.6089797e-17,24.4099297 0,25.03125 L0,26.15625 C2.28269391e-16,28.020211 1.51103897,29.53125 3.375,29.53125 L6.3,29.53125 L5.4,30.43125 C5.064086,30.8791353 5.10862642,31.5058667 5.50450487,31.9017451 C5.90038332,32.2976236 6.52711466,32.342164 6.975,32.00625 L9.7875,29.19375 L10.575,28.40625 L9.7875,27.61875 Z" id="Shape" fill="#FFFFFF"></path>
            <path d="M32.625,3.65625 L29.7,3.65625 L30.6,2.75625 C30.935914,2.30836466 30.8913736,1.68163332 30.4954951,1.28575487 C30.0996167,0.889876421 29.4728853,0.845335996 29.025,1.18125 L26.2125,3.99375 L25.425,4.78125 L26.2125,5.56875 L29.025,8.38125 C29.4728853,8.717164 30.0996167,8.67262358 30.4954951,8.27674513 C30.8913736,7.88086668 30.935914,7.25413534 30.6,6.80625 L29.7,5.90625 L32.625,5.90625 C33.2463203,5.90625 33.75,6.40992966 33.75,7.03125 L33.75,8.15625 C33.75,8.77757034 34.2536797,9.28125 34.875,9.28125 C35.4963203,9.28125 36,8.77757034 36,8.15625 L36,7.03125 C36,5.16728897 34.488961,3.65625 32.625,3.65625 Z" id="Path" fill="#82B541"></path>
        </g>
    </g>
</svg>