<?xml version="1.0" encoding="UTF-8"?>
<svg width="64px" height="64px" viewBox="0 0 64 64" version="1.1" xmlns="http://www.w3.org/2000/svg" xmlns:xlink="http://www.w3.org/1999/xlink">
    <!-- Generator: Sketch 53.2 (72643) - https://sketchapp.com -->
    <title>Artboard Copy 2</title>
    <desc>Created with Sketch.</desc>
    <g id="Artboard-Copy-2" stroke="none" stroke-width="1" fill="none" fill-rule="evenodd">
        <circle id="Oval" fill="#0E2B5C" cx="32" cy="32" r="32"></circle>
        <g id="3" transform="translate(14.000000, 18.000000)" fill-rule="nonzero">
            <path d="M33.6,18 L33.6,13.2 C33.6,10.5490332 31.4509668,8.4 28.8,8.4 C26.1490332,8.4 24,10.5490332 24,13.2 L24,18 L21.6,18 L21.6,28.8 L36,28.8 L36,18 L33.6,18 Z M30,24.6 C30,25.2627417 29.4627417,25.8 28.8,25.8 C28.1372583,25.8 27.6,25.2627417 27.6,24.6 L27.6,22.2 C27.6,21.5372583 28.1372583,21 28.8,21 C29.4627417,21 30,21.5372583 30,22.2 L30,24.6 Z M26.4,18 L26.4,13.2 C26.4,11.8745166 27.4745166,10.8 28.8,10.8 C30.1254834,10.8 31.2,11.8745166 31.2,13.2 L31.2,18 L26.4,18 Z" id="Shape" fill="#FFFFFF"></path>
            <path d="M19.2,18 L19.2,15.6 L21.6,15.6 L21.6,13.2 C21.602668,10.8640819 22.7383926,8.67462743 24.6464333,7.32707368 C26.554474,5.97951993 28.9976744,5.6413586 31.2,6.42 L31.2,3.6 L12,3.6 L12,0 L0,0 L0,24.18 C-6.66133815e-16,24.4505208 0.107463977,24.7099618 0.298751083,24.9012489 C0.490038189,25.092536 0.74947918,25.2 1.02,25.2 L19.2,25.2 L19.2,18 Z" id="Path" fill="#82B541"></path>
        </g>
    </g>
</svg>