<?xml version="1.0" encoding="UTF-8"?>
<svg width="64px" height="64px" viewBox="0 0 64 64" version="1.1" xmlns="http://www.w3.org/2000/svg" xmlns:xlink="http://www.w3.org/1999/xlink">
    <!-- Generator: Sketch 53.2 (72643) - https://sketchapp.com -->
    <title>Artboard Copy 4</title>
    <desc>Created with Sketch.</desc>
    <g id="Artboard-Copy-4" stroke="none" stroke-width="1" fill="none" fill-rule="evenodd">
        <circle id="Oval" fill="#0E2B5C" cx="32" cy="32" r="32"></circle>
        <g id="5" transform="translate(14.000000, 14.000000)" fill-rule="nonzero">
            <path d="M1.2,12.84 C1.57770876,12.84 1.93337474,12.662167 2.16,12.36 L8.34,13.26 C9.37694028,11.1316381 11.0845211,9.40297612 13.2,8.34 L12.3,2.16 C12.7132132,1.85009011 12.8817568,1.31053725 12.71842,0.820526681 C12.5550831,0.330516114 12.0965165,1.0658141e-15 11.58,0 L6.9,0 C3.08923523,-9.32587341e-16 3.99680289e-16,3.08923523 0,6.9 L0,11.64 C1.33226763e-16,12.3027417 0.5372583,12.84 1.2,12.84 Z M6.9,2.4 L9.06,2.4 C6.29000013,3.99184411 3.99184411,6.29000013 2.4,9.06 L2.4,6.9 C2.4,4.41471863 4.41471863,2.4 6.9,2.4 Z M34.8,23.16 C34.3900799,23.1539475 34.005436,23.3575825 33.78,23.7 L27.66,22.8 C26.5970239,24.9154789 24.8683619,26.6230597 22.74,27.66 L23.64,33.84 C23.2165059,34.1561406 23.0496872,34.7121192 23.2291828,35.209184 C23.4086784,35.7062488 23.8922284,36.027372 24.42,36 L29.1,36 C32.9107648,36 36,32.9107648 36,29.1 L36,24.36 C36,23.6972583 35.4627417,23.16 34.8,23.16 Z M29.1,33.6 L26.94,33.6 C29.7023388,32.0247025 31.999769,29.7479699 33.6,27 L33.6,29.1 C33.6,31.5852814 31.5852814,33.6 29.1,33.6 L29.1,33.6 Z" id="Shape" fill="#FFFFFF"></path>
            <path d="M35.64,21.54 C36.0991617,19.2225245 36.0991617,16.8374755 35.64,14.52 L28.5,15.54 C28.899353,17.1759815 28.899353,18.8840185 28.5,20.52 L35.64,21.54 Z" id="Path" fill="#82B541"></path>
            <path d="M27.66,13.2 L33.84,12.36 C34.1499099,12.7732132 34.6894628,12.9417568 35.1794733,12.77842 C35.6694839,12.6150831 36,12.1565165 36,11.64 L36,6.9 C36,3.08923523 32.9107648,1.77635684e-15 29.1,1.77635684e-15 L24.42,1.77635684e-15 C23.9143261,0.0245196273 23.4784375,0.3637593 23.3304966,0.84792953 C23.1825557,1.33209976 23.3543915,1.85703295 23.76,2.16 L22.8,8.34 C24.9060109,9.38754184 26.6124582,11.0939891 27.66,13.2 L27.66,13.2 Z M33.6,6.9 L33.6,9.06 C32.0081559,6.29000013 29.7099999,3.99184411 26.94,2.4 L29.1,2.4 C31.5852814,2.4 33.6,4.41471863 33.6,6.9 L33.6,6.9 Z" id="Shape" fill="#FFFFFF"></path>
            <path d="M14.46,0.36 L15.48,7.5 C17.1347892,7.08839739 18.8652108,7.08839739 20.52,7.5 L21.54,0.36 C19.2031147,-0.107122158 16.7968853,-0.107122158 14.46,0.36 L14.46,0.36 Z M18,28.8 C17.1712052,28.7947237 16.3457723,28.6940612 15.54,28.5 L14.52,35.64 C16.8180554,36.0912717 19.1819446,36.0912717 21.48,35.64 L20.46,28.5 C19.6542277,28.6940612 18.8287948,28.7947237 18,28.8 L18,28.8 Z" id="Shape" fill="#82B541"></path>
            <path d="M8.34,22.8 L2.22,23.76 C1.94084147,23.3089006 1.39861246,23.0946268 0.886496378,23.2330366 C0.374380298,23.3714464 0.0139132937,23.829692 0,24.36 L0,29.1 C-3.99680289e-16,32.9107648 3.08923523,36 6.9,36 L11.58,36 C12.0765699,35.9943563 12.5183627,35.6834286 12.6912728,35.2179013 C12.8641829,34.7523741 12.7324836,34.228435 12.36,33.9 L13.26,27.72 C11.1221529,26.6676581 9.39234186,24.9378471 8.34,22.8 L8.34,22.8 Z M2.4,29.1 L2.4,26.94 C3.99184411,29.7099999 6.29000013,32.0081559 9.06,33.6 L6.9,33.6 C4.41471863,33.6 2.4,31.5852814 2.4,29.1 Z" id="Shape" fill="#FFFFFF"></path>
            <path d="M0.36,14.46 C-0.113548176,16.8164446 -0.113548176,19.2435554 0.36,21.6 L7.5,20.52 C7.110349,18.9031445 7.110349,17.2168555 7.5,15.6 L0.36,14.46 Z" id="Path" fill="#82B541"></path>
        </g>
    </g>
</svg>